# xmcd CD database file
#
# Track frame offsets:
#	150
#	13860
#	29132
#	44185
#	61914
#	73887
#	89370
#	107847
#	122227
#	133069
#	147707
#	159555
#
# Disc length: 2348 seconds
#
# Revision: 1
# Processed by: cddbd v1.5.2PL0 Copyright (c) Steve Scherf et al.
# Submitted via: CDex 1.70beta2
#
DISCID=c2092a0c
DTITLE=Various Artist - 80's Country Radio
DYEAR=2005
DGENRE=Country
TTITLE0=Thank God For The Radio ( 1983 ) - The Kendalls
TTITLE1=Takin' It Easy ( 1981 ) - Lacy J. Dalton
TTITLE2=You Turn Me On (Like A Radio) ( 1984 ) - Ed Bruce
TTITLE3=Baby I Lied ( 1983 ) - Deborah Allen
TTITLE4=She's Not Really Cheatin' ( 1982 ) - Moe Bandy
TTITLE5=Crazy For Your Love ( 1984 ) - Exile
TTITLE6=The Sweetest Thing ( 1981 ) - Juice Newton
TTITLE7=Darlene ( 1988 ) - T Graham Brown
TTITLE8=I Got Mexico ( 1984 ) - Eddy Raven
TTITLE9=Love Someone Lilke Me ( 1987 ) - Holly Dunn
TTITLE10=San Antonio Rose  ( Live 1980 ) - Ray Price
TTITLE11=Somebody's Gonna Love You ( 1983 ) - Lee Greenwood
EXTD=YEAR: 2005
EXTT0=
EXTT1=
EXTT2=
EXTT3=
EXTT4=
EXTT5=
EXTT6=
EXTT7=
EXTT8=
EXTT9=
EXTT10=
EXTT11=
PLAYORDER=
